# xmcd CD database file
#
# Track frame offsets:
#	150
#	19137
#	42895
#	56967
#	90007
#	107330
#	124545
#	141605
#
# Disc length: 2337 seconds
#
# Revision: 3
# Processed by: cddbd v1.4PL0 Copyright (c) Steve Scherf et al.
# Submitted via: CDex 1.40Release
#
DISCID=62091f08
DTITLE=Ray Boltz - Watch The Lamb
DYEAR=1988
DGENRE=Contemporary Christian
TTITLE0=What Was I supposed To Be
TTITLE1=Touching Him
TTITLE2=It's Not Enough
TTITLE3=Watch The Lamb
TTITLE4=I've Come To Serve
TTITLE5=6 A.M. Blues
TTITLE6=Break The Yoke
TTITLE7=Behold
EXTD=YEAR: 1988
EXTT0=
EXTT1=
EXTT2=
EXTT3=
EXTT4=
EXTT5=
EXTT6=
EXTT7=
PLAYORDER=
